<?xml version="1.0" encoding="utf-8"?>
<!-- Generator: Adobe Illustrator 27.7.0, SVG Export Plug-In . SVG Version: 6.00 Build 0)  -->
<svg version="1.1" id="Capa_1" xmlns="http://www.w3.org/2000/svg" xmlns:xlink="http://www.w3.org/1999/xlink" x="0px" y="0px"
	 viewBox="0 0 160 67.6" style="enable-background:new 0 0 160 67.6;" xml:space="preserve">
<style type="text/css">
	.st0{fill:#25CE0D;}
	.st1{fill-rule:evenodd;clip-rule:evenodd;fill:#429B08;}
	.st2{fill-rule:evenodd;clip-rule:evenodd;fill:#002551;}
	
		.st3{opacity:0.2;fill:none;stroke:#FFFFFF;stroke-width:4.86;stroke-linecap:round;stroke-linejoin:round;enable-background:new    ;}
</style>
<g id="Capa_2_00000035519416478028735910000005641400346455439495_">
	<g id="Contenido">
		<path class="st0" d="M7,0h146c3.9,0,7,3.1,7,7v39.4c0,3.9-3.1,7-7,7H7c-3.9,0-7-3.1-7-7V7C0,3.1,3.1,0,7,0z"/>
		<path class="st1" d="M153.6,52.4H6.4c-3.6,0-6.4-3-6.4-6.6v7.5C-0.1,57,2.8,59.9,6.4,60c0,0,0,0,0,0h147.2c3.6,0,6.4-3,6.4-6.6
			c0,0,0,0,0,0v-7.5C160,49.5,157.2,52.4,153.6,52.4z"/>
		<path class="st2" d="M153.6,60H6.4C2.8,59.9,0,57,0,53.4V61c0,3.6,2.8,6.5,6.4,6.6h147.2c3.6-0.1,6.4-3,6.4-6.6v-7.6
			C160,57,157.2,59.9,153.6,60z"/>
		<line class="st3" x1="15" y1="7.6" x2="145.2" y2="7.6"/>
	</g>
</g>
</svg>
