<?xml version="1.0" encoding="UTF-8"?>
<svg xmlns="http://www.w3.org/2000/svg" xmlns:xlink="http://www.w3.org/1999/xlink" viewBox="0 0 606.55 592.44">
  <defs>
    <style>
      .cls-1 {
        fill: #d9a881;
      }

      .cls-1, .cls-2, .cls-3, .cls-4 {
        mix-blend-mode: multiply;
      }

      .cls-5 {
        filter: url(#drop-shadow-5);
      }

      .cls-5, .cls-6, .cls-7, .cls-8 {
        fill: #f9fafb;
      }

      .cls-9 {
        clip-path: url(#clippath-2);
      }

      .cls-9, .cls-10, .cls-2, .cls-11, .cls-3, .cls-12, .cls-13, .cls-14, .cls-15, .cls-16, .cls-17, .cls-18 {
        fill: none;
      }

      .cls-10 {
        mix-blend-mode: screen;
        stroke: #fff;
        stroke-width: 7.66px;
      }

      .cls-10, .cls-19, .cls-6, .cls-20, .cls-11, .cls-21, .cls-12, .cls-22, .cls-13, .cls-23, .cls-18 {
        stroke-linecap: round;
        stroke-linejoin: round;
      }

      .cls-10, .cls-3 {
        opacity: .3;
      }

      .cls-24, .cls-25, .cls-26, .cls-27 {
        fill: #fff;
      }

      .cls-19 {
        stroke: #f9f9f9;
        stroke-width: 9.05px;
      }

      .cls-19, .cls-28, .cls-23 {
        fill: #fffc38;
      }

      .cls-6 {
        filter: url(#drop-shadow-3);
        stroke: #f9fafb;
        stroke-width: 14.68px;
      }

      .cls-29 {
        fill: #4e0103;
      }

      .cls-20, .cls-11, .cls-21, .cls-22, .cls-13 {
        stroke-width: 11.14px;
      }

      .cls-20, .cls-21, .cls-22, .cls-13, .cls-23 {
        stroke: #000;
      }

      .cls-20, .cls-30 {
        fill: #2f358f;
      }

      .cls-2 {
        opacity: .4;
      }

      .cls-31 {
        filter: url(#drop-shadow-4);
      }

      .cls-31, .cls-32 {
        fill: #004589;
      }

      .cls-11 {
        stroke: #fffc38;
      }

      .cls-25, .cls-33, .cls-34, .cls-35 {
        fill-rule: evenodd;
      }

      .cls-33 {
        fill: #00327a;
      }

      .cls-36, .cls-34 {
        fill: #d10b29;
      }

      .cls-37 {
        fill: #f89b2d;
      }

      .cls-38 {
        fill: #002756;
      }

      .cls-21, .cls-39 {
        fill: #f8a995;
      }

      .cls-26 {
        mix-blend-mode: soft-light;
      }

      .cls-12 {
        stroke: #4e0103;
        stroke-width: 5.57px;
      }

      .cls-22 {
        fill: #f9f9f9;
      }

      .cls-40 {
        fill: #fce27d;
      }

      .cls-41 {
        fill: #fcd23d;
      }

      .cls-23 {
        stroke-width: 8.35px;
      }

      .cls-14 {
        isolation: isolate;
      }

      .cls-42 {
        fill: url(#Degradado_sin_nombre_2);
      }

      .cls-43 {
        fill: #00408c;
      }

      .cls-16 {
        clip-path: url(#clippath);
      }

      .cls-7 {
        filter: url(#drop-shadow-2);
      }

      .cls-44 {
        fill: #ea5638;
      }

      .cls-17 {
        clip-path: url(#clippath-1);
      }

      .cls-35, .cls-45 {
        fill: #930c26;
      }

      .cls-46 {
        fill: #fbb539;
      }

      .cls-4 {
        fill: #a5050e;
        opacity: .2;
        stroke: #a5050e;
        stroke-miterlimit: 10;
        stroke-width: 1.31px;
      }

      .cls-47 {
        fill: #212223;
      }

      .cls-18 {
        filter: url(#drop-shadow-1);
        stroke: #56b8e3;
        stroke-width: 15.97px;
      }

      .cls-27 {
        font-size: 13.77px;
      }

      .cls-48 {
        fill: #d8641d;
      }

      .cls-49 {
        fill: #fb0d1b;
      }
    </style>
    <filter id="drop-shadow-1" filterUnits="userSpaceOnUse">
      <feOffset dx="0" dy="0"/>
      <feGaussianBlur result="blur" stdDeviation="20.75"/>
      <feFlood flood-color="#56b8e3" flood-opacity="1"/>
      <feComposite in2="blur" operator="in"/>
      <feComposite in="SourceGraphic"/>
    </filter>
    <filter id="drop-shadow-2" filterUnits="userSpaceOnUse">
      <feOffset dx="0" dy="0"/>
      <feGaussianBlur result="blur-2" stdDeviation="5.47"/>
      <feFlood flood-color="#fff" flood-opacity="1"/>
      <feComposite in2="blur-2" operator="in"/>
      <feComposite in="SourceGraphic"/>
    </filter>
    <filter id="drop-shadow-3" filterUnits="userSpaceOnUse">
      <feOffset dx="0" dy="0"/>
      <feGaussianBlur result="blur-3" stdDeviation="18.6"/>
      <feFlood flood-color="#56b8e3" flood-opacity="1"/>
      <feComposite in2="blur-3" operator="in"/>
      <feComposite in="SourceGraphic"/>
    </filter>
    <clipPath id="clippath">
      <polygon class="cls-8" points="510.36 169.76 357.04 169.76 432.62 348.18 585.94 348.18 510.36 169.76"/>
    </clipPath>
    <clipPath id="clippath-1">
      <polygon class="cls-8" points="405.52 133.99 51.51 133.99 127.09 312.41 480.45 312.41 409.26 144.37 405.52 133.99"/>
    </clipPath>
    <filter id="drop-shadow-4" filterUnits="userSpaceOnUse">
      <feOffset dx="0" dy="0"/>
      <feGaussianBlur result="blur-4" stdDeviation="4.57"/>
      <feFlood flood-color="#fff" flood-opacity="1"/>
      <feComposite in2="blur-4" operator="in"/>
      <feComposite in="SourceGraphic"/>
    </filter>
    <clipPath id="clippath-2">
      <path class="cls-15" d="m512.54,295.23c0,111.04-90.02,201.06-201.06,201.06s-201.06-90.02-201.06-201.06S76.72,26.96,311.48,49.13c110.55,10.44,287.08,58.05,201.06,246.1Z"/>
    </clipPath>
    <filter id="drop-shadow-5" filterUnits="userSpaceOnUse">
      <feOffset dx="0" dy="0"/>
      <feGaussianBlur result="blur-5" stdDeviation="7.91"/>
      <feFlood flood-color="#fff" flood-opacity="1"/>
      <feComposite in2="blur-5" operator="in"/>
      <feComposite in="SourceGraphic"/>
    </filter>
    <linearGradient id="Degradado_sin_nombre_2" data-name="Degradado sin nombre 2" x1="416.62" y1="321.78" x2="457.59" y2="367.97" gradientTransform="translate(-16.55 742.01) scale(.75 -.75)" gradientUnits="userSpaceOnUse">
      <stop offset="0" stop-color="#974efa"/>
      <stop offset=".08" stop-color="#974efa"/>
      <stop offset=".3" stop-color="#8659ee"/>
      <stop offset=".5" stop-color="#5797d2"/>
      <stop offset=".6" stop-color="#49b3c8"/>
      <stop offset=".72" stop-color="#38deb8"/>
      <stop offset=".97" stop-color="#32f89d"/>
      <stop offset="1" stop-color="#32f89d"/>
    </linearGradient>
  </defs>
  <g class="cls-14">
    <g id="Capa_2" data-name="Capa 2">
      <g id="Contenido">
        <g>
          <circle class="cls-18" cx="311.48" cy="295.23" r="224.32"/>
          <g>
            <g>
              <path class="cls-48" d="m518.57,72.39l-6.67-6.67-62.34,62.34,6.67,6.67c11.35,11.35,34.5,6.59,51.71-10.63s21.97-40.37,10.63-51.71Z"/>
              <path class="cls-1" d="m451.25,126.37l-1.69,1.69,6.67,6.67c4.82,4.82,11.77,6.72,19.5,6.01l-19.67-19.19-4.81,4.81Z"/>
              <path class="cls-26" d="m502.05,98.49l14.83,14.48c3.35-5.29,5.67-10.75,6.87-16.02l-10.3-10.05-11.41,11.59Z"/>
              <path class="cls-26" d="m515.65,84.71l8.78,8.56c.13-1.02.22-2.03.27-3.03l-7.39-7.21-1.65,1.68Z"/>
              <ellipse class="cls-40" cx="480.73" cy="96.89" rx="44.08" ry="29.05" transform="translate(72.29 368.3) rotate(-45)"/>
              <ellipse class="cls-41" cx="480.73" cy="96.89" rx="42.63" ry="28.1" transform="translate(72.29 368.3) rotate(-45)"/>
              <path class="cls-26" d="m444.7,113.24l64.65-7.41c3.3-5.24,5.55-10.66,6.67-15.86l-68.83,7.89c-1.97,5.34-2.82,10.6-2.48,15.38Z"/>
              <path class="cls-26" d="m492.03,123.94l-39.78,4.56c9.48,7.47,25.54,5.38,39.78-4.56Z"/>
              <path class="cls-26" d="m470.64,69l37.75-4.33c-2.35-1.66-5.06-2.77-8.02-3.37l-19.08,2.19c-3.56,1.35-7.15,3.19-10.65,5.51Z"/>
              <path class="cls-26" d="m448.76,94.07l67.87-7.78c.09-.82.14-1.62.18-2.42l-66.77,7.65c-.45.85-.88,1.69-1.27,2.54Z"/>
              <path class="cls-26" d="m510.76,66.86c11.22,11.22,6.68,33.98-10.06,51.13.19-.19.39-.37.58-.56,17.21-17.21,21.97-40.37,10.63-51.71-11.35-11.35-34.5-6.59-51.71,10.63-.19.19-.37.39-.56.58,17.15-16.75,39.91-21.29,51.13-10.06Z"/>
              <ellipse class="cls-26" cx="480.34" cy="98.19" rx="30.32" ry="19.99" transform="translate(71.26 368.41) rotate(-45)"/>
              <ellipse class="cls-46" cx="480.73" cy="96.89" rx="30.32" ry="19.99" transform="translate(72.29 368.3) rotate(-45)"/>
              <path class="cls-37" d="m467.8,85.18c11.84-11.84,27.77-15.12,35.58-7.31.72.72,1.34,1.5,1.87,2.35-.7-1.79-1.72-3.41-3.08-4.77-7.81-7.81-23.73-4.53-35.58,7.31-10.76,10.76-14.44,24.88-9.18,33.23-3.32-8.48.61-21.03,10.39-30.81Z"/>
            </g>
            <path d="m495.48,59.55c.97,0,1.93.04,2.86.14,5.31.51,10.01,2.48,13.55,6.03l6.67,6.67c4.79,4.79,6.7,11.68,6.02,19.34v.04c-.15,1.69-.43,3.42-.83,5.18h0s0,0,0,0c-1.2,5.26-3.52,10.73-6.87,16.01,0,0,0,0,0,0-2.45,3.86-5.43,7.62-8.95,11.14-9.9,9.9-21.76,15.67-32.22,16.64h0s0,0,0,0c-1.04.1-2.06.14-3.07.14-1.28,0-2.54-.08-3.76-.24-.07,0-.14-.02-.21-.03-.36-.05-.72-.11-1.07-.17-.12-.02-.23-.04-.35-.07-.33-.06-.66-.13-.98-.21-.14-.03-.27-.07-.4-.1-.31-.08-.62-.16-.93-.25-.14-.04-.27-.09-.4-.13-.53-.17-1.06-.36-1.57-.56-.17-.07-.34-.13-.51-.2-.21-.09-.41-.19-.61-.28-.22-.1-.44-.21-.66-.32-.19-.1-.37-.2-.56-.3-.22-.12-.45-.25-.66-.38-.17-.1-.34-.21-.51-.32-.23-.15-.45-.3-.68-.46-.15-.11-.3-.21-.45-.33-.24-.18-.48-.37-.72-.57-.12-.1-.24-.19-.36-.3-.35-.3-.69-.62-1.02-.95l-6.67-6.67h0s0,0,0,0c-11.35-11.35-6.59-34.5,10.63-51.71,10.89-10.89,24.15-16.79,35.3-16.79m0-9.98c-14.18,0-30.01,7.37-42.36,19.71-21.44,21.44-26.1,50.35-10.63,65.83l6.67,6.67c.48.48.98.95,1.55,1.43.16.14.33.28.5.41l.05.04c.36.29.72.58,1.09.86.21.16.42.31.64.46,0,0,.04.03.05.03.33.24.67.46,1.01.69.25.16.51.32.76.48.33.2.67.39,1,.58l.06.03c.25.14.51.28.76.41.31.16.61.3.91.44l.06.03.11.05c.26.12.52.24.78.36.22.1.45.19.68.27l.08.03c.73.29,1.49.57,2.26.81l.05.02c.18.06.36.12.54.17.42.13.86.24,1.31.35l.09.02c.16.04.32.08.48.12.45.11.91.2,1.37.29.17.03.33.06.49.09.49.09.98.17,1.48.23l.28.04c1.65.21,3.34.32,5.05.32,1.29,0,2.61-.06,3.93-.18h.02c13.23-1.22,27.21-8.34,38.39-19.52,3.94-3.94,7.41-8.26,10.32-12.85,0,0,0,0,0,0s0,0,0,0c3.93-6.2,6.67-12.62,8.16-19.09,0-.01,0-.03,0-.04h0c.5-2.19.85-4.38,1.04-6.52,0,0,0-.06,0-.07.95-10.87-2.21-20.55-8.91-27.26l-6.67-6.67c-5.08-5.08-11.87-8.16-19.66-8.91-1.25-.12-2.53-.18-3.82-.18h0Z"/>
            <path class="cls-7" d="m512.91,57.41l9.26,2.98c.89.29.89,1.55,0,1.84l-9.26,2.98c-.3.1-.53.33-.62.62l-2.98,9.26c-.29.89-1.55.89-1.84,0l-2.98-9.26c-.1-.3-.33-.53-.62-.62l-9.26-2.98c-.89-.29-.89-1.55,0-1.84l9.26-2.98c.3-.1.53-.33.62-.62l2.98-9.26c.29-.89,1.55-.89,1.84,0l2.98,9.26c.1.3.33.53.62.62Z"/>
          </g>
          <circle class="cls-6" cx="311.48" cy="295.23" r="201.06"/>
          <g>
            <g>
              <path class="cls-48" d="m58.42,353.57l-4.31-6.25,58.35-40.29,4.31,6.25c7.33,10.62.22,28.25-15.9,39.38-16.11,11.13-35.12,11.54-42.45.92Z"/>
              <path class="cls-1" d="m110.88,308.12l1.58-1.09,4.31,6.25c3.12,4.51,3.61,10.29,1.93,16.3l-12.33-18.34,4.5-3.11Z"/>
              <path class="cls-26" d="m81.46,344.28l9.3,13.83c-4.67,1.88-9.33,2.93-13.67,3.12l-6.46-9.6,10.82-7.35Z"/>
              <path class="cls-26" d="m68.59,353.04l5.5,8.18c-.83-.04-1.64-.12-2.43-.23l-4.64-6.89,1.57-1.06Z"/>
              <ellipse class="cls-40" cx="83.28" cy="327.18" rx="35.45" ry="23.37" transform="translate(-171.15 105.27) rotate(-34.63)"/>
              <ellipse class="cls-41" cx="83.28" cy="327.18" rx="34.29" ry="22.6" transform="translate(-171.15 105.27) rotate(-34.63)"/>
              <path class="cls-26" d="m101.44,301.04l-15.23,50.07c-4.63,1.85-9.24,2.85-13.52,2.98l16.21-53.31c4.51-.78,8.8-.7,12.53.26Z"/>
              <path class="cls-26" d="m103.05,340.04l9.37-30.81c4.54,8.59.56,20.99-9.37,30.81Z"/>
              <path class="cls-26" d="m62.68,315.16l-8.89,29.24c-.97-2.1-1.46-4.41-1.5-6.84l4.49-14.78c1.58-2.62,3.56-5.2,5.9-7.63Z"/>
              <path class="cls-26" d="m85.69,301.48l-15.99,52.57c-.66-.05-1.3-.12-1.94-.21l15.73-51.72c.73-.23,1.47-.45,2.2-.64Z"/>
              <path class="cls-26" d="m55.18,346.58c7.25,10.5,25.92,10.21,41.91-.56-.18.13-.35.25-.53.38-16.11,11.13-35.12,11.54-42.45.92-7.33-10.62-.22-28.25,15.9-39.38.18-.12.36-.24.54-.36-15.74,11.14-22.62,28.5-15.37,39Z"/>
              <ellipse class="cls-26" cx="84.37" cy="327.06" rx="24.39" ry="16.08" transform="translate(-170.89 105.87) rotate(-34.63)"/>
              <ellipse class="cls-46" cx="83.28" cy="327.18" rx="24.39" ry="16.08" transform="translate(-171.15 105.27) rotate(-34.63)"/>
              <path class="cls-37" d="m75.89,315.26c-11.08,7.65-15.98,19.78-10.94,27.09.46.67.99,1.28,1.59,1.82-1.32-.81-2.45-1.85-3.33-3.13-5.04-7.31-.15-19.43,10.94-27.09,10.07-6.95,21.78-7.82,27.62-2.45-6.23-3.85-16.73-2.56-25.88,3.76Z"/>
            </g>
            <path d="m95.22,299.33c7.38,0,13.68,2.56,17.23,7.7h0l4.31,6.25s0,0,0,0c.35.51.66,1.04.95,1.59.05.09.1.18.14.27.27.53.5,1.07.71,1.63.03.09.07.19.1.28.2.58.38,1.17.52,1.78,0,.01,0,.03,0,.04.14.63.25,1.28.33,1.94,0,.03,0,.06.01.09.07.66.11,1.32.11,2,0,.05,0,.1,0,.14,0,2.11-.32,4.3-.95,6.53,0,0,0,0,0,0h0c-2.28,8.13-8.56,16.68-17.83,23.08-3.29,2.27-6.7,4.09-10.11,5.46,0,0,0,0,0,0-4.67,1.88-9.33,2.93-13.66,3.12,0,0,0,0,0,0h0c-.49.02-.97.03-1.44.03-1.37,0-2.71-.09-3.99-.27h0c-5.63-.78-10.35-3.24-13.24-7.43l-4.31-6.25c-1.15-1.66-1.94-3.49-2.4-5.44-.37-1.56-.53-3.2-.48-4.88.02-.84.1-1.7.22-2.56.18-1.3.48-2.62.88-3.94.71-2.37,1.78-4.78,3.14-7.15,1.04-1.81,2.27-3.6,3.67-5.35.39-.48.78-.96,1.19-1.43.63-.72,1.29-1.44,1.98-2.14.99-1.01,2.03-1.99,3.13-2.94,1.43-1.23,2.95-2.42,4.57-3.53h0s0,0,0,0c8.3-5.73,17.37-8.62,25.22-8.62m0-9.98c-10.22,0-21.19,3.69-30.89,10.39-1.86,1.28-3.68,2.69-5.42,4.19-1.29,1.11-2.55,2.3-3.74,3.51-.82.83-1.62,1.7-2.38,2.58-.49.57-.98,1.15-1.45,1.74-1.7,2.13-3.23,4.35-4.53,6.61-1.76,3.05-3.12,6.16-4.05,9.25-.55,1.81-.95,3.64-1.2,5.43-.17,1.24-.28,2.48-.31,3.69-.07,2.56.18,5.07.74,7.45.76,3.2,2.07,6.16,3.9,8.82l4.31,6.25c4.37,6.33,11.51,10.47,20.09,11.65,1.73.24,3.53.36,5.36.36.62,0,1.25-.01,1.87-.04,0,0,0,0,.01,0h0c5.56-.24,11.27-1.53,16.96-3.83,4.19-1.69,8.24-3.88,12.04-6.51,10.84-7.48,18.77-17.9,21.77-28.59,0,0,0,0,0,0,0,0,0,0,0,0,0,0,0-.01,0-.02.87-3.11,1.31-6.21,1.31-9.21v-.21c0-1.04-.06-2.05-.17-3.02,0-.07-.02-.15-.03-.24-.11-.97-.27-1.91-.47-2.81-.01-.06-.03-.12-.04-.17-.22-.95-.49-1.88-.83-2.85v-.04c-.06-.14-.11-.27-.16-.41-.34-.91-.73-1.8-1.15-2.65-.07-.14-.15-.29-.23-.43-.5-.94-1-1.78-1.53-2.55-.01-.02-.02-.03-.03-.05l-4.31-6.25c-5.35-7.75-14.39-12.01-25.45-12.01h0Z"/>
          </g>
          <g>
            <path class="cls-38" d="m405.22,133.99l4.04,10.38,10.76,25.39h90.34l75.58,178.42h-153.32l-15.15-35.77H127.09L51.51,133.99h353.71m0-8.79H51.51c-2.95,0-5.7,1.48-7.32,3.93-1.63,2.46-1.91,5.57-.77,8.28l75.58,178.42c1.38,3.25,4.56,5.36,8.09,5.36h284.55l12.88,30.41c1.38,3.25,4.56,5.36,8.09,5.36h153.32c2.95,0,5.7-1.48,7.32-3.93,1.63-2.46,1.91-5.57.77-8.28l-75.58-178.42c-1.38-3.25-4.56-5.36-8.09-5.36h-84.52l-8.44-19.92-3.99-10.26c-1.31-3.38-4.56-5.6-8.19-5.6h0Z"/>
            <g>
              <polygon class="cls-8" points="510.36 169.76 357.04 169.76 432.62 348.18 585.94 348.18 510.36 169.76"/>
              <g class="cls-16">
                <polygon class="cls-36" points="622.77 312.5 355.78 312.5 378.47 348.18 645.47 348.18 622.77 312.5"/>
                <polygon class="cls-36" points="562.44 241.13 310.39 241.13 333.08 276.82 585.13 276.82 562.44 241.13"/>
                <polygon class="cls-36" points="523.24 169.76 264.99 169.76 287.69 205.45 545.94 205.45 523.24 169.76"/>
              </g>
            </g>
            <polygon class="cls-45" points="480.45 312.41 432.62 348.18 417.47 312.41 480.45 312.41"/>
            <g>
              <polygon class="cls-8" points="405.52 133.99 51.51 133.99 127.09 312.41 480.45 312.41 409.26 144.37 405.52 133.99"/>
              <g class="cls-17">
                <polygon class="cls-36" points="528.37 276.73 70.19 276.73 92.88 312.41 551.07 312.41 528.37 276.73"/>
                <polygon class="cls-36" points="482.98 205.36 39.74 205.36 62.43 241.04 505.68 241.04 482.98 205.36"/>
                <polygon class="cls-36" points="437.59 133.99 -5.66 133.99 17.04 169.68 460.29 169.68 437.59 133.99"/>
                <polygon class="cls-32" points="178.09 62.62 -28.89 62.62 46.69 241.04 258.66 241.04 178.09 62.62"/>
              </g>
            </g>
            <polygon class="cls-45" points="480.45 312.41 432.62 348.18 417.47 312.41 480.45 312.41"/>
            <path class="cls-38" d="m38.09,118.07h0c-8.2,0-13.75,8.35-10.58,15.91l112.06,266.86h24.88L48.67,125.1c-1.79-4.26-5.96-7.03-10.58-7.03Z"/>
            <path class="cls-32" d="m40.14,124.21h0c-1.74-.01-2.93,1.76-2.27,3.37l39.96,93.58c.38.89,1.25,1.47,2.22,1.47h0c1.75.01,2.93-1.77,2.24-3.38l-39.92-93.54c-.37-.91-1.26-1.5-2.24-1.51Z"/>
            <g>
              <path class="cls-8" d="m86.61,144.37l3.62,4.22c.28.33.67.55,1.05.61l4.9.68c.96.13,1.72,1.25,1.3,1.89l-2.17,3.28c-.17.25-.15.62.04.98l2.48,4.64c.48.9-.21,1.59-1.18,1.17l-4.96-2.19c-.38-.17-.77-.17-1.03,0l-3.37,2.19c-.66.43-1.86-.26-2.03-1.17l-.89-4.64c-.07-.36-.32-.73-.67-.98l-4.56-3.28c-.89-.64-.93-1.76-.07-1.89l4.41-.68c.34-.05.57-.28.61-.61l.55-4.22c.11-.82,1.28-.82,1.99,0Z"/>
              <path class="cls-8" d="m122.63,144.37l3.62,4.22c.28.33.67.55,1.05.61l4.9.68c.96.13,1.72,1.25,1.3,1.89l-2.17,3.28c-.17.25-.15.62.04.98l2.48,4.64c.48.9-.21,1.59-1.18,1.17l-4.96-2.19c-.38-.17-.77-.17-1.03,0l-3.37,2.19c-.66.43-1.86-.26-2.03-1.17l-.89-4.64c-.07-.36-.32-.73-.67-.98l-4.56-3.28c-.89-.64-.93-1.76-.07-1.89l4.41-.68c.34-.05.57-.28.61-.61l.55-4.22c.11-.82,1.28-.82,1.99,0Z"/>
              <path class="cls-8" d="m158.66,144.37l3.62,4.22c.28.33.67.55,1.05.61l4.9.68c.96.13,1.72,1.25,1.3,1.89l-2.17,3.28c-.17.25-.15.62.04.98l2.48,4.64c.48.9-.21,1.59-1.18,1.17l-4.96-2.19c-.38-.17-.77-.17-1.03,0l-3.37,2.19c-.66.43-1.86-.26-2.03-1.17l-.89-4.64c-.07-.36-.32-.73-.67-.98l-4.56-3.28c-.89-.64-.93-1.76-.07-1.89l4.41-.68c.34-.05.57-.28.61-.61l.55-4.22c.11-.82,1.28-.82,1.99,0Z"/>
              <path class="cls-8" d="m97.21,173.14l3.62,4.22c.28.33.67.55,1.05.61l4.9.68c.96.13,1.72,1.25,1.3,1.89l-2.17,3.28c-.17.25-.15.62.04.98l2.48,4.64c.48.9-.21,1.59-1.18,1.17l-4.96-2.19c-.38-.17-.77-.17-1.03,0l-3.37,2.19c-.66.43-1.86-.26-2.03-1.17l-.89-4.64c-.07-.36-.32-.73-.67-.98l-4.56-3.28c-.89-.64-.93-1.76-.07-1.89l4.41-.68c.34-.05.57-.28.61-.61l.55-4.22c.11-.82,1.28-.82,1.99,0Z"/>
              <path class="cls-8" d="m133.23,173.14l3.62,4.22c.28.33.67.55,1.05.61l4.9.68c.96.13,1.72,1.25,1.3,1.89l-2.17,3.28c-.17.25-.15.62.04.98l2.48,4.64c.48.9-.21,1.59-1.18,1.17l-4.96-2.19c-.38-.17-.77-.17-1.03,0l-3.37,2.19c-.66.43-1.86-.26-2.03-1.17l-.89-4.64c-.07-.36-.32-.73-.67-.98l-4.56-3.28c-.89-.64-.93-1.76-.07-1.89l4.41-.68c.34-.05.57-.28.61-.61l.55-4.22c.11-.82,1.28-.82,1.99,0Z"/>
              <path class="cls-8" d="m169.26,173.14l3.62,4.22c.28.33.67.55,1.05.61l4.9.68c.96.13,1.72,1.25,1.3,1.89l-2.17,3.28c-.17.25-.15.62.04.98l2.48,4.64c.48.9-.21,1.59-1.18,1.17l-4.96-2.19c-.38-.17-.77-.17-1.03,0l-3.37,2.19c-.66.43-1.86-.26-2.03-1.17l-.89-4.64c-.07-.36-.32-.73-.67-.98l-4.56-3.28c-.89-.64-.93-1.76-.07-1.89l4.41-.68c.34-.05.57-.28.61-.61l.55-4.22c.11-.82,1.28-.82,1.99,0Z"/>
              <path class="cls-8" d="m109.45,202.08l3.62,4.22c.28.33.67.55,1.05.61l4.9.68c.96.13,1.72,1.25,1.3,1.89l-2.17,3.28c-.17.25-.15.62.04.98l2.48,4.64c.48.9-.21,1.59-1.18,1.17l-4.96-2.19c-.38-.17-.77-.17-1.03,0l-3.37,2.19c-.66.43-1.86-.26-2.03-1.17l-.89-4.64c-.07-.36-.32-.73-.67-.98l-4.56-3.28c-.89-.64-.93-1.76-.07-1.89l4.41-.68c.34-.05.57-.28.61-.61l.55-4.22c.11-.82,1.28-.82,1.99,0Z"/>
              <path class="cls-8" d="m145.48,202.08l3.62,4.22c.28.33.67.55,1.05.61l4.9.68c.96.13,1.72,1.25,1.3,1.89l-2.17,3.28c-.17.25-.15.62.04.98l2.48,4.64c.48.9-.21,1.59-1.18,1.17l-4.96-2.19c-.38-.17-.77-.17-1.03,0l-3.37,2.19c-.66.43-1.86-.26-2.03-1.17l-.89-4.64c-.07-.36-.32-.73-.67-.98l-4.56-3.28c-.89-.64-.93-1.76-.07-1.89l4.41-.68c.34-.05.57-.28.61-.61l.55-4.22c.11-.82,1.28-.82,1.99,0Z"/>
              <path class="cls-8" d="m181.5,202.08l3.62,4.22c.28.33.67.55,1.05.61l4.9.68c.96.13,1.72,1.25,1.3,1.89l-2.17,3.28c-.17.25-.15.62.04.98l2.48,4.64c.48.9-.21,1.59-1.18,1.17l-4.96-2.19c-.38-.17-.77-.17-1.03,0l-3.37,2.19c-.66.43-1.86-.26-2.03-1.17l-.89-4.64c-.07-.36-.32-.73-.67-.98l-4.56-3.28c-.89-.64-.93-1.76-.07-1.89l4.41-.68c.34-.05.57-.28.61-.61l.55-4.22c.11-.82,1.28-.82,1.99,0Z"/>
              <path class="cls-8" d="m194.69,144.37l3.62,4.22c.28.33.67.55,1.05.61l4.9.68c.96.13,1.72,1.25,1.3,1.89l-2.17,3.28c-.17.25-.15.62.04.98l2.48,4.64c.48.9-.21,1.59-1.18,1.17l-4.96-2.19c-.38-.17-.77-.17-1.03,0l-3.37,2.19c-.66.43-1.86-.26-2.03-1.17l-.89-4.64c-.07-.36-.32-.73-.67-.98l-4.56-3.28c-.89-.64-.93-1.76-.07-1.89l4.41-.68c.34-.05.57-.28.61-.61l.55-4.22c.11-.82,1.28-.82,1.99,0Z"/>
              <path class="cls-8" d="m205.28,173.14l3.62,4.22c.28.33.67.55,1.05.61l4.9.68c.96.13,1.72,1.25,1.3,1.89l-2.17,3.28c-.17.25-.15.62.04.98l2.48,4.64c.48.9-.21,1.59-1.18,1.17l-4.96-2.19c-.38-.17-.77-.17-1.03,0l-3.37,2.19c-.66.43-1.86-.26-2.03-1.17l-.89-4.64c-.07-.36-.32-.73-.67-.98l-4.56-3.28c-.89-.64-.93-1.76-.07-1.89l4.41-.68c.34-.05.57-.28.61-.61l.55-4.22c.11-.82,1.28-.82,1.99,0Z"/>
              <path class="cls-8" d="m217.53,202.08l3.62,4.22c.28.33.67.55,1.05.61l4.9.68c.96.13,1.72,1.25,1.3,1.89l-2.17,3.28c-.17.25-.15.62.04.98l2.48,4.64c.48.9-.21,1.59-1.18,1.17l-4.96-2.19c-.38-.17-.77-.17-1.03,0l-3.37,2.19c-.66.43-1.86-.26-2.03-1.17l-.89-4.64c-.07-.36-.32-.73-.67-.98l-4.56-3.28c-.89-.64-.93-1.76-.07-1.89l4.41-.68c.34-.05.57-.28.61-.61l.55-4.22c.11-.82,1.28-.82,1.99,0Z"/>
            </g>
            <circle class="cls-32" cx="84.07" cy="229.79" r="3.08"/>
          </g>
          <g>
            <g>
              <path class="cls-48" d="m536.31,423.68l6.67,6.67-62.31,62.31-6.67-6.67c-11.34-11.34-6.59-34.48,10.62-51.69,17.21-17.21,40.35-21.96,51.69-10.62Z"/>
              <path class="cls-1" d="m482.36,490.97l-1.69,1.69-6.67-6.67c-4.82-4.82-6.72-11.77-6.01-19.49l19.18,19.66-4.81,4.81Z"/>
              <path class="cls-26" d="m510.23,440.19l-14.47-14.83c5.29-3.35,10.75-5.66,16.01-6.87l10.04,10.29-11.58,11.4Z"/>
              <path class="cls-26" d="m524,426.6l-8.56-8.77c1.02-.13,2.03-.22,3.03-.27l7.21,7.39-1.68,1.65Z"/>
              <ellipse class="cls-40" cx="511.83" cy="461.51" rx="44.06" ry="29.04" transform="translate(-176.42 497.09) rotate(-45)"/>
              <ellipse class="cls-41" cx="511.83" cy="461.51" rx="42.61" ry="28.09" transform="translate(-176.42 497.09) rotate(-45)"/>
              <path class="cls-26" d="m495.49,497.51l7.41-64.62c5.24-3.3,10.66-5.55,15.86-6.66l-7.89,68.8c-5.34,1.97-10.6,2.82-15.38,2.48Z"/>
              <path class="cls-26" d="m484.79,450.2l-4.56,39.76c-7.47-9.48-5.38-25.53,4.56-39.76Z"/>
              <path class="cls-26" d="m539.71,471.58l4.32-37.73c1.66,2.35,2.77,5.06,3.36,8.02l-2.19,19.07c-1.35,3.56-3.19,7.15-5.5,10.64Z"/>
              <path class="cls-26" d="m514.64,493.46l7.78-67.83c.82-.09,1.62-.14,2.42-.18l-7.65,66.74c-.85.45-1.69.87-2.54,1.27Z"/>
              <path class="cls-26" d="m541.84,431.49c-11.21-11.21-33.97-6.68-51.11,10.06.19-.19.37-.39.56-.58,17.21-17.21,40.35-21.96,51.69-10.62,11.34,11.34,6.59,34.48-10.62,51.69-.19.19-.39.37-.58.56,16.74-17.14,21.28-39.9,10.06-51.11Z"/>
              <ellipse class="cls-26" cx="510.53" cy="461.89" rx="30.31" ry="19.98" transform="translate(-177.08 496.28) rotate(-45)"/>
              <ellipse class="cls-46" cx="511.83" cy="461.51" rx="30.31" ry="19.98" transform="translate(-176.42 497.09) rotate(-45)"/>
              <path class="cls-37" d="m523.54,474.42c11.84-11.84,15.11-27.76,7.31-35.56-.72-.72-1.5-1.34-2.35-1.87,1.79.7,3.4,1.72,4.76,3.08,7.8,7.8,4.53,23.72-7.31,35.56-10.75,10.75-24.87,14.43-33.21,9.17,8.47,3.31,21.02-.61,30.79-10.38Z"/>
            </g>
            <path d="m519.91,417.53c6.47,0,12.24,1.99,16.41,6.15l6.67,6.67c1.77,1.77,3.15,3.83,4.15,6.11.8,1.82,1.36,3.79,1.68,5.86.16,1.04.26,2.1.31,3.18.07,1.63,0,3.3-.19,5.02-.34,3.06-1.1,6.24-2.24,9.44-.87,2.45-1.97,4.91-3.29,7.36-.36.67-.74,1.35-1.14,2.02-.61,1.03-1.25,2.05-1.94,3.06-.98,1.45-2.04,2.88-3.17,4.29-1.47,1.83-3.07,3.62-4.79,5.34h0c-10.88,10.88-24.14,16.78-35.28,16.78-6.48,0-12.24-1.99-16.41-6.16h0s-6.67-6.67-6.67-6.67c0,0,0,0,0,0-.55-.55-1.04-1.13-1.52-1.73-.08-.1-.16-.19-.23-.29-.44-.59-.85-1.2-1.23-1.83-.06-.11-.12-.21-.18-.32-.38-.67-.73-1.35-1.03-2.06,0-.02-.01-.03-.02-.05-.32-.74-.59-1.51-.83-2.3-.01-.04-.02-.07-.04-.11-.23-.79-.43-1.6-.58-2.42-.01-.06-.02-.12-.03-.18-.47-2.58-.57-5.33-.31-8.19,0,0,0,0,0,0h0c.96-10.45,6.73-22.31,16.63-32.2,3.51-3.51,7.28-6.5,11.13-8.94,0,0,0,0,0,0,5.28-3.35,10.75-5.66,16.01-6.87,0,0,0,0,0,0h0c2.28-.52,4.53-.84,6.7-.93h0c.48-.02.96-.03,1.44-.03m0-9.98c-.62,0-1.25.01-1.88.04-2.76.12-5.62.52-8.48,1.17,0,0,0,0,0,0h0c-6.48,1.48-12.91,4.23-19.12,8.17-4.59,2.91-8.91,6.38-12.85,10.32-11.18,11.18-18.29,25.16-19.51,38.34,0,.01,0,.03,0,.04-.34,3.77-.2,7.43.43,10.87l.04.22c.23,1.21.51,2.36.83,3.43.02.08.05.17.08.25.33,1.09.71,2.13,1.13,3.11.03.07.05.13.08.2.43,1,.93,2,1.53,3.04l.03.06c.08.14.16.28.24.42.57.96,1.2,1.89,1.85,2.76.1.14.22.28.33.42.78.99,1.52,1.83,2.28,2.59.02.02.03.03.05.05l6.67,6.67c5.94,5.94,14.06,9.09,23.47,9.09,14.17,0,30-7.37,42.34-19.71,1.92-1.92,3.78-3.99,5.51-6.14,1.29-1.6,2.52-3.27,3.67-4.97.78-1.16,1.54-2.36,2.26-3.56.46-.78.91-1.57,1.33-2.36,1.55-2.88,2.86-5.82,3.91-8.75,1.4-3.95,2.33-7.88,2.76-11.68.25-2.21.33-4.41.24-6.53-.06-1.46-.2-2.91-.42-4.31-.46-2.94-1.26-5.75-2.4-8.34-1.52-3.46-3.61-6.54-6.23-9.16l-6.67-6.67c-5.94-5.94-14.05-9.08-23.47-9.08h0Z"/>
          </g>
          <path class="cls-31" d="m165.22,487.31l7.73,2.48c.75.24.75,1.29,0,1.53l-7.73,2.48c-.25.08-.44.27-.52.52l-2.48,7.73c-.24.75-1.29.75-1.53,0l-2.48-7.73c-.08-.25-.27-.44-.52-.52l-7.73-2.48c-.75-.24-.75-1.29,0-1.53l7.73-2.48c.25-.08.44-.27.52-.52l2.48-7.73c.24-.75,1.29-.75,1.53,0l2.48,7.73c.08.25.27.44.52.52Z"/>
          <g>
            <g>
              <path class="cls-48" d="m425.61,78.47l4.14-4.56-42.62-38.68-4.14,4.56c-7.04,7.76-3.21,22.7,8.56,33.39,11.77,10.68,27.02,13.05,34.06,5.29Z"/>
              <path class="cls-1" d="m388.28,36.28l-1.16-1.05-4.14,4.56c-2.99,3.3-4.01,7.89-3.3,12.9l11.89-13.43-3.29-2.99Z"/>
              <path class="cls-26" d="m408.07,68.53l-8.97,10.13c3.55,2.02,7.19,3.36,10.66,3.97l6.23-7.03-7.92-7.07Z"/>
              <path class="cls-26" d="m417.48,76.96l-5.31,5.99c.67.06,1.33.08,1.98.08l4.47-5.05-1.15-1.02Z"/>
              <ellipse class="cls-40" cx="408.44" cy="54.57" rx="18.97" ry="28.78" transform="translate(93.55 320.36) rotate(-47.78)"/>
              <ellipse class="cls-41" cx="408.44" cy="54.57" rx="18.34" ry="27.83" transform="translate(93.55 320.36) rotate(-47.78)"/>
              <path class="cls-26" d="m396.64,31.59l6.88,41.92c3.52,1.99,7.13,3.28,10.55,3.84l-7.32-44.63c-3.54-1.12-7-1.51-10.11-1.13Z"/>
              <path class="cls-26" d="m391.15,62.8l-4.23-25.8c-4.57,6.42-2.7,16.82,4.23,25.8Z"/>
              <path class="cls-26" d="m426.31,47.11l4.02,24.48c1.01-1.59,1.65-3.39,1.94-5.34l-2.03-12.37c-.99-2.28-2.31-4.56-3.93-6.77Z"/>
              <path class="cls-26" d="m409.26,33.63l7.22,44.01c.53.03,1.06.04,1.58.04l-7.1-43.3c-.57-.27-1.13-.52-1.7-.75Z"/>
              <path class="cls-26" d="m428.97,73.2c-6.96,7.67-21.95,5.43-33.66-4.95.13.12.25.24.38.36,11.77,10.68,27.02,13.05,34.06,5.29,7.04-7.76,3.21-22.7-8.56-33.39-.13-.12-.26-.23-.4-.35,11.46,10.65,15.14,25.35,8.18,33.02Z"/>
              <ellipse class="cls-26" cx="407.58" cy="54.36" rx="13.05" ry="19.8" transform="translate(93.42 319.65) rotate(-47.78)"/>
              <ellipse class="cls-46" cx="408.44" cy="54.57" rx="13.05" ry="19.8" transform="translate(93.55 320.36) rotate(-47.78)"/>
              <path class="cls-37" d="m415.67,45.77c8.1,7.35,10.73,17.63,5.89,22.97-.44.49-.94.92-1.47,1.29,1.15-.51,2.17-1.23,3.01-2.16,4.84-5.34,2.21-15.62-5.89-22.97-7.35-6.67-16.68-8.63-21.96-4.93,5.42-2.43,13.73-.27,20.42,5.8Z"/>
            </g>
            <path d="m398.67,30.67c7.06,0,15.42,3.42,22.52,9.86,8.09,7.34,12.43,16.7,12.07,24.36-.17,3.48-1.3,6.61-3.5,9.03l-4.14,4.56c-2.8,3.08-6.89,4.56-11.54,4.56-.29,0-.59,0-.88-.02,0,0-.02,0-.03,0-1.11-.04-2.25-.17-3.4-.38h0s0,0,0,0c-3.47-.62-7.11-1.96-10.66-3.97,0,0,0,0,0,0-2.59-1.47-5.14-3.3-7.55-5.48-6.77-6.14-10.91-13.7-11.87-20.48h0s0,0,0,0c-.22-1.53-.27-3.02-.16-4.45,0-.05,0-.09.01-.14.02-.24.05-.47.08-.71,0-.08.02-.15.03-.23.03-.22.07-.43.11-.65.02-.09.04-.18.05-.27.04-.21.08-.41.13-.61.02-.09.05-.18.07-.27.09-.35.2-.7.32-1.04.04-.11.07-.23.12-.34.05-.14.11-.27.17-.41.06-.15.12-.29.19-.44.06-.13.12-.25.18-.37.07-.15.15-.3.23-.45.06-.12.13-.23.19-.34.09-.15.18-.3.28-.45.07-.1.13-.21.2-.31.11-.17.23-.33.35-.49.06-.08.12-.16.18-.24.19-.24.38-.47.58-.7l4.14-4.56h0s0,0,0,0c2.8-3.08,6.89-4.56,11.54-4.56m0-9.98h0c-7.62,0-14.34,2.78-18.93,7.84l-4.14,4.56c-.35.39-.69.79-1.05,1.24-.11.14-.22.29-.33.44-.21.28-.42.57-.62.87-.11.17-.22.34-.33.51-.19.3-.35.56-.51.84-.11.2-.23.4-.34.6-.14.27-.28.53-.41.79-.12.24-.22.44-.31.65-.11.24-.21.48-.31.72l-.04.1c-.09.21-.18.42-.26.64-.07.19-.14.38-.2.57-.2.57-.38,1.16-.53,1.75-.04.15-.08.3-.12.46-.08.32-.15.66-.22.99v.06c-.04.13-.06.26-.09.39-.06.34-.12.68-.17,1.04-.02.12-.03.24-.05.37-.05.37-.09.74-.12,1.11l-.02.24c-.17,2.12-.1,4.34.22,6.59,0,.01,0,.03,0,.04,1.32,9.35,6.81,19,15.04,26.48,2.88,2.62,6.02,4.89,9.33,6.77,4.52,2.57,9.17,4.29,13.83,5.12,1.6.29,3.2.46,4.75.52.47.02.89.03,1.31.03,7.62,0,14.35-2.78,18.93-7.83l4.14-4.56c3.7-4.07,5.8-9.35,6.08-15.26.52-10.99-5.21-23.04-15.33-32.22-8.72-7.91-19.37-12.45-29.23-12.45h0Z"/>
          </g>
          <g class="cls-9">
            <g>
              <path d="m309.62,448.89c51.95,0,78.47,21.34,78.47,47.66s-26.52,47.66-78.47,47.66-78.47-21.34-78.47-47.66,26.52-47.66,78.47-47.66m0-11.14c-26.7,0-49.12,5.46-64.84,15.79-15.98,10.5-24.78,25.77-24.78,43.01s8.8,32.51,24.78,43.01c15.72,10.33,38.14,15.79,64.84,15.79s49.12-5.46,64.84-15.79c15.98-10.5,24.78-25.77,24.78-43.01s-8.8-32.51-24.78-43.01c-15.72-10.33-38.14-15.79-64.84-15.79h0Z"/>
              <g>
                <path class="cls-20" d="m260.46,534.21c2.32-12.4,14.25-22.46,26.65-22.46,12.4,0,20.58,10.05,18.26,22.46l-19.01,108.75h-44.91s19.01-108.75,19.01-108.75Z"/>
                <path class="cls-20" d="m359.06,534.21c-2.32-12.4-14.25-22.46-26.65-22.46-12.4,0-20.58,10.05-18.26,22.46l19.01,108.75h44.91s-19.01-108.75-19.01-108.75Z"/>
              </g>
              <ellipse class="cls-30" cx="309.62" cy="496.55" rx="78.47" ry="47.66"/>
              <path class="cls-22" d="m309.54,303.45c-82.11,0-97.61,16.96-99.68,151.3v15.28c12.81,4.35,52.58,7.53,99.68,7.53s86.87-3.18,99.68-7.53v-15.28c-2.07-134.34-17.57-151.3-99.68-151.3Z"/>
              <path class="cls-49" d="m333.16,360.26v-13.03c0-6.92-6.96-12.53-15.54-12.53h-16.16c-8.58,0-15.54,5.61-15.54,12.53v13.03c0,2.98,1.29,5.71,3.44,7.86,2.9,2.9,4.42,6.53,4.1,10.24l-5.05,59.6h42.27l-5.05-59.6c-.31-3.71,1.21-7.34,4.1-10.24,2.15-2.15,3.44-4.88,3.44-7.86Z"/>
              <path class="cls-20" d="m360.22,308.42l2.26,12.01c1.83,9.72.57,19.64-3.63,28.86-8.59,18.86-22.3,43.81-32,54.85l-17.32,19.72-17.32-19.72c-9.7-11.04-23.41-35.99-32-54.85-4.2-9.22-5.46-19.15-3.63-28.86l2.26-12.01c-38.45,11.3-47.46,46.23-49,146.33v41.44c12.81,4.35,52.58,7.53,99.68,7.53s86.87-3.18,99.68-7.53v-41.44c-1.54-100.1-10.54-135.02-49-146.33Z"/>
              <g>
                <g>
                  <path d="m196.26,456.23c-6.53,0-12.75-3.13-16.63-8.38l-28.08-37.92c-6.9-9.31-9.75-20.77-8.04-32.26,1.71-11.49,7.79-21.62,17.1-28.52l37.92-28.08c3.59-2.66,7.84-4.06,12.3-4.06,6.53,0,12.75,3.13,16.63,8.37,6.79,9.17,4.85,22.14-4.31,28.93l-37.92,28.08c-.6.45-.77,1.05-.82,1.37-.05.32-.06.95.38,1.55l17.37,23.46c.7-.12,1.42-.18,2.14-.18,3.93,0,7.67,1.88,10,5.04,1.98,2.67,2.8,5.95,2.31,9.24-.23,1.52-.72,2.96-1.46,4.27,1.59,3.56,2.14,7.51,1.55,11.46-.81,5.46-3.71,10.28-8.15,13.57-3.59,2.66-7.84,4.06-12.3,4.06Z"/>
                  <path d="m210.82,322.58c4.63,0,9.19,2.12,12.16,6.12,4.97,6.71,3.56,16.17-3.15,21.14l-37.92,28.08c-3.39,2.51-4.11,7.32-1.6,10.71l19.91,26.88c1.23-.91,2.66-1.35,4.08-1.35,2.1,0,4.18.96,5.53,2.78,2.26,3.05,1.62,7.35-1.43,9.61,4.97,6.71,3.56,16.17-3.15,21.14-2.7,2-5.86,2.97-8.98,2.97-4.63,0-9.19-2.12-12.16-6.12l-28.08-37.92c-12.43-16.79-8.89-40.56,7.9-52.99l37.92-28.08c2.7-2,5.86-2.97,8.98-2.97m0-11.14c-5.66,0-11.06,1.78-15.61,5.16l-37.92,28.08c-10.51,7.78-17.36,19.21-19.3,32.17-1.93,12.96,1.29,25.89,9.07,36.4l28.08,37.92c4.93,6.66,12.82,10.63,21.11,10.63,5.66,0,11.06-1.78,15.61-5.16,5.64-4.17,9.31-10.29,10.34-17.23.62-4.13.25-8.27-1.03-12.12,2.04-5.51,1.34-11.92-2.41-16.98-3.27-4.42-8.45-7.12-13.94-7.28l-13.5-18.23,35.13-26.01c5.64-4.17,9.31-10.29,10.34-17.23,1.03-6.94-.69-13.86-4.87-19.49-4.93-6.66-12.82-10.63-21.11-10.63h0Z"/>
                </g>
                <path class="cls-39" d="m209.82,416.95c-2.26-3.05-6.56-3.69-9.61-1.43h0l-19.91-26.88c-2.51-3.39-1.8-8.2,1.6-10.71l37.92-28.08c6.71-4.97,8.12-14.43,3.15-21.14-4.97-6.71-14.43-8.12-21.14-3.15l-37.92,28.08c-16.79,12.43-20.33,36.2-7.9,52.99l28.08,37.92c4.97,6.71,14.43,8.12,21.14,3.15,6.71-4.97,8.12-14.43,3.15-21.14,3.05-2.26,3.69-6.56,1.43-9.61Z"/>
                <path class="cls-30" d="m222.98,328.7c-4.97-6.71-14.43-8.12-21.14-3.15l-37.92,28.08c-16.79,12.43-20.33,36.2-7.9,52.99l19.99,26.99,25.37-18.78c-.4.19-.79.42-1.16.69l-19.91-26.88c-2.51-3.39-1.8-8.2,1.6-10.71l37.92-28.08c6.71-4.97,8.12-14.43,3.15-21.14Z"/>
              </g>
              <g>
                <g>
                  <path d="m426.72,456.23c-4.46,0-8.71-1.4-12.3-4.06-7.93-5.87-10.45-16.37-6.59-25.03-2.32-4.14-2.16-9.44.84-13.5,2.34-3.15,6.08-5.04,10-5.04.72,0,1.44.06,2.14.18l17.37-23.46c.45-.6.43-1.23.38-1.55-.05-.32-.22-.93-.82-1.37l-37.92-28.08c-4.44-3.29-7.33-8.11-8.15-13.57s.55-10.92,3.83-15.36c3.88-5.24,10.1-8.38,16.63-8.38,4.46,0,8.71,1.4,12.3,4.06l37.92,28.08c19.25,14.26,23.32,41.52,9.06,60.78l-28.08,37.92c-3.88,5.24-10.1,8.37-16.63,8.37Z"/>
                  <path d="m412.15,322.58c3.13,0,6.28.97,8.98,2.97l37.92,28.08c16.79,12.43,20.33,36.2,7.9,52.99l-28.08,37.92c-2.96,4-7.53,6.12-12.16,6.12-3.13,0-6.28-.97-8.98-2.97-6.71-4.97-8.12-14.43-3.15-21.14-3.05-2.26-3.69-6.56-1.43-9.61,1.35-1.82,3.42-2.78,5.53-2.78,1.42,0,2.85.44,4.08,1.35l19.91-26.88c2.51-3.39,1.8-8.2-1.6-10.71l-37.92-28.08c-6.71-4.97-8.12-14.43-3.15-21.14,2.96-4,7.53-6.12,12.16-6.12m0-11.14h0c-8.29,0-16.18,3.97-21.11,10.63-4.17,5.64-5.9,12.56-4.87,19.49,1.03,6.94,4.71,13.05,10.34,17.23l35.13,26.01-13.5,18.23c-5.49.17-10.67,2.86-13.94,7.28-2.86,3.87-4.05,8.61-3.34,13.37.19,1.25.5,2.46.93,3.63-1.28,3.85-1.64,7.98-1.02,12.1,1.03,6.94,4.71,13.05,10.34,17.23,4.55,3.37,9.95,5.16,15.61,5.16,8.29,0,16.18-3.97,21.11-10.63l28.08-37.92c16.09-21.72,11.5-52.48-10.22-68.57l-37.92-28.08c-4.55-3.37-9.95-5.16-15.61-5.16h0Z"/>
                </g>
                <path class="cls-39" d="m413.15,416.95c2.26-3.05,6.56-3.69,9.61-1.43h0l19.91-26.88c2.51-3.39,1.8-8.2-1.6-10.71l-37.92-28.08c-6.71-4.97-8.12-14.43-3.15-21.14,4.97-6.71,14.43-8.12,21.14-3.15l37.92,28.08c16.79,12.43,20.33,36.2,7.9,52.99l-28.08,37.92c-4.97,6.71-14.43,8.12-21.14,3.15-6.71-4.97-8.12-14.43-3.15-21.14-3.05-2.26-3.69-6.56-1.43-9.61Z"/>
                <path class="cls-30" d="m400,328.7c4.97-6.71,14.43-8.12,21.14-3.15l37.92,28.08c16.79,12.43,20.33,36.2,7.9,52.99l-19.99,26.99-25.37-18.78c.4.19.79.42,1.16.69l19.91-26.88c2.51-3.39,1.8-8.2-1.6-10.71l-37.92-28.08c-6.71-4.97-8.12-14.43-3.15-21.14Z"/>
              </g>
              <g>
                <g>
                  <ellipse class="cls-21" cx="215.57" cy="224.41" rx="17.75" ry="33.6"/>
                  <ellipse class="cls-21" cx="406.41" cy="224.41" rx="17.75" ry="33.6"/>
                </g>
                <g>
                  <path class="cls-39" d="m316.05,337.46h-9.51c-52.7,0-94.46-16.98-91.11-64.63l4.76-90.95c3.06-43.55,42.94-77.44,91.11-77.44h0c48.17,0,88.05,33.9,91.11,77.44l4.76,90.95c3.35,47.65-38.4,64.63-91.11,64.63Z"/>
                  <path class="cls-4" d="m406.67,265.85c-5.5,40.6-43.72,49.19-90.62,49.19h-9.51c-46.9,0-85.12-8.58-90.62-49.19l-.49,6.98c-3.35,47.65,38.4,64.63,91.11,64.63h9.51c52.7,0,94.46-16.98,91.11-64.63l-.49-6.98Z"/>
                  <path class="cls-13" d="m316.05,337.46h-9.51c-52.7,0-94.46-16.98-91.11-64.63l4.76-90.95c3.06-43.55,42.94-77.44,91.11-77.44h0c48.17,0,88.05,33.9,91.11,77.44l4.76,90.95c3.35,47.65-38.4,64.63-91.11,64.63Z"/>
                </g>
                <path class="cls-28" d="m241.73,140.78c-4.75,6.04-13.09,18.21-15.31,33.97-2.62,18.59-2.5,36.37-2.45,37.3,24.03-44.73,36.3-60.48,17.76-71.27Z"/>
                <path class="cls-28" d="m380.77,140.45c4.75,6.04,13.19,18.41,15.41,34.16,2.62,18.59,2.4,36.17,2.35,37.11-23.3-41.93-36.3-60.48-17.76-71.27Z"/>
                <g>
                  <path class="cls-28" d="m383.69,101.4c-1.13-.29-6.3-.82-7.84-.95l-116.36-9.68c-15.79-1.31-36.59,10.33-37.86,26.72h0c-1.28,16.39,17.44,31.32,33.24,32.64l104.03,8.65c.29.14,17.84,1.85,31.13,13.34,2.15,1.86,4.99,1.72,6.01-.55.71-1.57,1.4-3.33,1.99-5.24.22-.7.93-1.1,1.61-.9,9,2.63,17.39,6.05,22.72,10.44,3.94,3.24,9.31,2.1,10.73-2.03,6.95-20.23,11.43-57.09-49.39-72.44Z"/>
                  <path class="cls-13" d="m383.69,101.4c-1.13-.29-6.3-.82-7.84-.95l-116.36-9.68c-15.79-1.31-36.59,10.33-37.86,26.72h0c-1.28,16.39,17.44,31.32,33.24,32.64l104.03,8.65c.29.14,17.84,1.85,31.13,13.34,2.15,1.86,4.99,1.72,6.01-.55.71-1.57,1.4-3.33,1.99-5.24.22-.7.93-1.1,1.61-.9,9,2.63,17.39,6.05,22.72,10.44,3.94,3.24,9.31,2.1,10.73-2.03,6.95-20.23,11.43-57.09-49.39-72.44Z"/>
                  <path class="cls-23" d="m339.4,155.93c-9.56-9.87-21.34-14.05-21.34-14.05"/>
                  <path class="cls-23" d="m383.72,151.24c7.26,8.78,16.8,12.94,16.8,12.94"/>
                  <g>
                    <path class="cls-19" d="m408.94,134.56c.32.34.64.68.95,1.03"/>
                    <path class="cls-19" d="m265.78,107.93l115.17,9.58s8.46,2.77,15.93,7.3"/>
                  </g>
                  <path class="cls-23" d="m293.21,152.08c-34.01-9.55-43.21-26.44-43.21-26.44"/>
                </g>
                <g>
                  <g>
                    <path class="cls-11" d="m327.39,180.08l10.33-6.2c4.35-2.61,9.9-2.04,13.62,1.41l15.3,12.87"/>
                    <path class="cls-11" d="m291.07,180.08l-10.33-6.2c-4.35-2.61-9.9-2.04-13.62,1.41l-15.3,12.87"/>
                  </g>
                  <g class="cls-3">
                    <polyline class="cls-12" points="236.84 216.42 250.06 211.88 231.55 206.86"/>
                    <polyline class="cls-12" points="383.45 216.42 370.23 211.88 388.74 206.86"/>
                  </g>
                  <ellipse class="cls-44" cx="310.84" cy="235.39" rx="12.49" ry="9.82"/>
                  <g class="cls-3">
                    <path class="cls-12" d="m282.45,239.71c-4.48,3.14-15.09,6.19-22.47,8.04-4.86,1.22-8.37,3.96-9.31,7.23l-1.67,5.8"/>
                    <path class="cls-12" d="m339.29,239.71c4.48,3.14,15.09,6.19,22.47,8.04,4.86,1.22,8.37,3.96,9.31,7.23l1.67,5.8"/>
                  </g>
                  <g>
                    <path class="cls-13" d="m269.89,211.34c4.81-5.19,12.91-5.49,18.1-.68"/>
                    <path class="cls-13" d="m352.16,211.34c-4.81-5.19-12.91-5.49-18.1-.68"/>
                  </g>
                  <g>
                    <path class="cls-10" d="m241.68,236.23c2.61-1.48,5.62-2.32,8.84-2.32"/>
                    <path class="cls-10" d="m379.93,236.23c-2.61-1.48-5.62-2.32-8.84-2.32"/>
                  </g>
                  <path d="m267.55,252.37c11.29,1.31,22.22,2.7,33.47,2.76,5.66.05,17.05.14,22.71.19,11.25.14,22.25-1.08,33.55-2.2,2.08-.21,3.94,1.31,4.14,3.4.2,2.06-1.29,3.89-3.34,4.12-11.27,1.31-22.88,2.77-34.36,2.8-5.66.04-17.05.14-22.71.19-11.48.15-23.16-1.12-34.44-2.25-5.97-.77-5.08-9.51.97-9h0Z"/>
                  <g class="cls-2">
                    <path class="cls-29" d="m300.25,268.92c3.32.84,8.67.58,12.13.71,3.51,0,8.82.45,12.22-.26,2.99-.44,3.8,3.92.84,4.58-2.17.51-4.55.67-6.72.69-3.16.05-9.52.17-12.69.23-2.18.06-4.6-.03-6.8-.47-3.68-.7-2.69-6.13,1.01-5.48h0Z"/>
                  </g>
                </g>
                <path class="cls-13" d="m284.14,318.94l2.91,5.47c2.61,4.91,9.37,8.17,16.92,8.17h13.94c7.56,0,14.31-3.26,16.92-8.17l2.91-5.47"/>
              </g>
            </g>
          </g>
          <g>
            <g>
              <path class="cls-48" d="m168.3,496.99l9.67-9.67-90.38-90.38-9.67,9.67c-16.45,16.45-9.55,50.02,15.41,74.98,24.96,24.96,58.53,31.86,74.98,15.41Z"/>
              <path class="cls-1" d="m90.04,399.38l-2.45-2.45-9.67,9.67c-6.99,6.99-9.75,17.07-8.72,28.27l27.82-28.51-6.98-6.98Z"/>
              <path class="cls-26" d="m130.46,473.05l-20.99,21.51c7.67,4.86,15.59,8.22,23.22,9.96l14.57-14.93-16.8-16.54Z"/>
              <path class="cls-26" d="m150.43,492.76l-12.42,12.72c1.48.19,2.95.32,4.39.39l10.46-10.72-2.43-2.39Z"/>
              <ellipse class="cls-40" cx="132.78" cy="442.12" rx="42.12" ry="63.91" transform="translate(-273.74 223.38) rotate(-45)"/>
              <ellipse class="cls-41" cx="132.78" cy="442.12" rx="40.74" ry="61.81" transform="translate(-273.74 223.38) rotate(-45)"/>
              <path class="cls-26" d="m109.08,389.89l10.74,93.73c7.6,4.78,15.46,8.05,23,9.66l-11.44-99.8c-7.74-2.86-15.37-4.09-22.3-3.6Z"/>
              <path class="cls-26" d="m93.56,458.52l-6.61-57.68c-10.83,13.75-7.8,37.03,6.61,57.68Z"/>
              <path class="cls-26" d="m173.22,427.51l6.27,54.73c2.4-3.41,4.02-7.34,4.88-11.63l-3.17-27.66c-1.96-5.16-4.63-10.37-7.98-15.44Z"/>
              <path class="cls-26" d="m136.86,395.77l11.28,98.4c1.18.13,2.35.21,3.51.26l-11.1-96.81c-1.23-.65-2.46-1.27-3.69-1.84Z"/>
              <path class="cls-26" d="m176.32,485.66c-16.27,16.27-49.27,9.69-74.14-14.59.27.28.54.56.81.84,24.96,24.96,58.53,31.86,74.98,15.41s9.55-50.02-15.41-74.98c-.28-.28-.56-.54-.84-.81,24.28,24.87,30.86,57.87,14.59,74.14Z"/>
              <ellipse class="cls-26" cx="130.89" cy="441.56" rx="28.98" ry="43.97" transform="translate(-273.89 221.89) rotate(-45)"/>
              <ellipse class="cls-46" cx="132.78" cy="442.12" rx="28.98" ry="43.97" transform="translate(-273.74 223.38) rotate(-45)"/>
              <path class="cls-37" d="m149.76,423.39c17.17,17.17,21.92,40.26,10.6,51.58-1.04,1.04-2.18,1.94-3.4,2.71,2.6-1.02,4.94-2.49,6.91-4.47,11.32-11.32,6.57-34.41-10.6-51.58-15.59-15.59-36.07-20.94-48.18-13.31,12.29-4.81,30.49.89,44.67,15.06Z"/>
            </g>
            <path d="m111.39,387.99c16.16,0,35.39,8.56,51.18,24.34s24.14,34.56,24.34,50.61c.02,1.6-.04,3.18-.19,4.72-.3,3.08-.93,6.02-1.92,8.76-1.48,4.12-3.74,7.8-6.83,10.89l-9.67,9.67c-6.05,6.05-14.41,8.92-23.8,8.92-.69,0-1.39-.02-2.09-.05h0c-.71-.03-1.43-.08-2.15-.14-.02,0-.04,0-.07,0-2.46-.22-4.96-.62-7.51-1.2h0s0,0,0,0c-7.63-1.75-15.55-5.1-23.22-9.96,0,0,0,0,0,0-5.59-3.55-11.05-7.87-16.15-12.97-14.36-14.36-22.72-31.55-24.12-46.71h0s0,0,0,0c-.32-3.42-.27-6.74.13-9.89.01-.1.02-.21.04-.31.07-.52.16-1.04.25-1.56.03-.17.06-.34.09-.51.09-.48.19-.95.3-1.42.05-.2.1-.39.15-.59.11-.45.23-.9.36-1.34.06-.2.13-.39.19-.58.25-.78.52-1.54.82-2.29.1-.24.19-.49.29-.74.13-.3.27-.59.41-.88.15-.32.3-.64.46-.95.14-.27.29-.54.44-.81.18-.33.36-.65.56-.97.15-.25.31-.5.46-.74.21-.33.44-.66.66-.98.16-.22.31-.44.47-.66.26-.35.54-.7.82-1.04.14-.17.28-.35.43-.52.44-.51.89-1,1.37-1.48h0s9.67-9.67,9.67-9.67h0c6.05-6.05,14.41-8.94,23.8-8.94m0-9.98c-12.43,0-23.1,4.1-30.86,11.86l-9.67,9.67c-.62.62-1.23,1.27-1.86,2-.17.2-.34.4-.5.6l-.08.1c-.3.37-.7.86-1.12,1.41-.2.27-.4.55-.6.83l-.04.06c-.31.44-.61.88-.89,1.32-.21.33-.42.66-.62.99-.26.43-.51.86-.75,1.3l-.05.09c-.18.33-.36.65-.53.99-.2.4-.39.79-.57,1.19l-.04.09-.09.19c-.15.32-.31.65-.45.98-.12.28-.23.55-.33.82l-.06.16c-.39.96-.75,1.97-1.07,2.98l-.04.11c-.07.22-.14.43-.21.65-.18.61-.33,1.19-.47,1.72l-.04.15c-.05.2-.1.41-.15.61-.13.55-.26,1.15-.39,1.81-.04.22-.08.44-.12.66-.12.68-.22,1.32-.31,1.95-.02.12-.03.23-.04.34v.06c-.5,3.84-.56,7.9-.18,12.04,0,.01,0,.02,0,.03,1.67,18.11,11.51,37.38,27,52.87,5.48,5.48,11.49,10.3,17.86,14.34,8.57,5.43,17.41,9.21,26.3,11.25.01,0,.03,0,.04,0h0c2.98.68,5.95,1.16,8.85,1.41l.94-9.94-.89,9.94c.9.08,1.77.14,2.6.17.85.04,1.7.06,2.53.06,12.44,0,23.11-4.1,30.86-11.85l9.67-9.67c4.07-4.07,7.15-8.97,9.16-14.58,1.25-3.49,2.08-7.25,2.46-11.18.18-1.89.26-3.84.24-5.8-.24-19.2-10.43-40.71-27.26-57.54-17.07-17.07-38.84-27.27-58.23-27.27h0Z"/>
            <path class="cls-5" d="m69.77,418.53l13.38,4.3c1.29.41,1.29,2.24,0,2.66l-13.38,4.3c-.43.14-.76.47-.9.9l-4.3,13.38c-.41,1.29-2.24,1.29-2.66,0l-4.3-13.38c-.14-.43-.47-.76-.9-.9l-13.38-4.3c-1.29-.41-1.29-2.24,0-2.66l13.38-4.3c.43-.14.76-.47.9-.9l4.3-13.38c.41-1.29,2.24-1.29,2.66,0l4.3,13.38c.14.43.47.76.9.9Z"/>
          </g>
          <g>
            <polygon class="cls-43" points="566.42 394.51 558.98 391.86 566.42 389.22 569.07 381.78 571.72 389.22 579.16 391.86 571.72 394.51 569.07 401.95 566.42 394.51"/>
            <polygon class="cls-43" points="575.15 179.98 561.2 175.02 575.15 170.05 580.11 156.11 585.07 170.05 599.02 175.02 585.07 179.98 580.11 193.93 575.15 179.98"/>
            <polygon class="cls-43" points="123.91 81.72 112.57 77.68 123.91 73.64 127.95 62.3 131.99 73.64 143.33 77.68 131.99 81.72 127.95 93.06 123.91 81.72"/>
            <polygon class="cls-43" points="13.95 231.67 0 226.71 13.95 221.75 18.91 207.79 23.88 221.75 37.83 226.71 23.88 231.67 18.91 245.62 13.95 231.67"/>
            <polygon class="cls-43" points="593.38 255.2 585.94 252.55 593.38 249.9 596.03 242.46 598.68 249.9 606.12 252.55 598.68 255.2 596.03 262.64 593.38 255.2"/>
            <polygon class="cls-43" points="24.59 283 18.91 280.98 24.59 278.96 26.61 273.29 28.62 278.96 34.3 280.98 28.62 283 26.61 288.67 24.59 283"/>
            <polygon class="cls-43" points="165.93 45.98 160.26 43.96 165.93 41.94 167.95 36.27 169.97 41.94 175.65 43.96 169.97 45.98 167.95 51.65 165.93 45.98"/>
          </g>
        </g>
        <g>
          <g>
            <g>
              <path class="cls-34" d="m262.74,544.35c-15.11,1.96-30.1,5.19-44.8,9.69-1.54.47-3-.95-2.53-2.49,1.75-5.7,3.69-11.39,5.81-17.07-4.68-3.78-9.51-7.45-14.5-11.01-1.35-.96-1.04-3.07.55-3.56,16.69-5.12,33.71-8.79,50.87-11.02,1.53,11.82,3.07,23.64,4.6,35.45Z"/>
              <path class="cls-34" d="m360.21,544.35c15.11,1.96,30.1,5.19,44.8,9.69,1.54.47,3-.95,2.53-2.49-1.75-5.7-3.69-11.39-5.81-17.07,4.68-3.78,9.51-7.45,14.5-11.01,1.35-.96,1.04-3.07-.55-3.56-16.69-5.12-33.71-8.79-50.87-11.02-1.53,11.82-3.07,23.64-4.6,35.45Z"/>
              <polygon class="cls-35" points="227.64 542.64 231.77 529.08 391.18 529.08 395.06 542.62 227.64 542.64"/>
            </g>
            <g>
              <path class="cls-33" d="m331.07,591.26c-1.03,0-2.07-.25-2.99-.72l-14.68-7.52c-.59-.3-1.26-.46-1.92-.46s-1.33.16-1.92.46l-14.68,7.52c-.92.47-1.96.72-2.99.72-2.24,0-4.31-1.12-5.53-3.01l-8.95-13.85c-.73-1.13-1.98-1.85-3.33-1.92l-16.47-.83c-3.39-.17-6.07-2.85-6.24-6.24l-.83-16.47c-.07-1.35-.79-2.59-1.92-3.33l-13.85-8.95c-2.85-1.84-3.83-5.5-2.28-8.52l7.52-14.68c.62-1.2.62-2.64,0-3.84l-7.52-14.68c-1.55-3.02-.56-6.68,2.28-8.52l13.85-8.95c1.13-.73,1.85-1.98,1.92-3.33l.83-16.47c.17-3.39,2.85-6.07,6.24-6.24l16.47-.83c1.35-.07,2.59-.79,3.33-1.92l8.95-13.85c1.22-1.88,3.28-3.01,5.53-3.01,1.04,0,2.07.25,3,.72l14.68,7.52c.59.3,1.26.46,1.92.46s1.33-.16,1.92-.46l14.68-7.52c.92-.47,1.96-.72,3-.72,2.24,0,4.31,1.12,5.53,3.01l8.95,13.85c.73,1.13,1.98,1.85,3.33,1.92l16.47.83c3.39.17,6.07,2.85,6.24,6.24l.83,16.47c.07,1.35.79,2.59,1.92,3.33l13.85,8.95c2.85,1.84,3.83,5.5,2.28,8.52l-7.52,14.68c-.62,1.2-.62,2.64,0,3.84l7.52,14.68c1.55,3.02.57,6.68-2.28,8.52l-13.85,8.95c-1.13.73-1.85,1.98-1.92,3.33l-.83,16.47c-.17,3.39-2.85,6.07-6.24,6.24l-16.47.83c-1.35.07-2.59.79-3.33,1.92l-8.95,13.85c-1.22,1.88-3.28,3.01-5.53,3.01Z"/>
              <path class="cls-24" d="m331.07,433.02c1.78,0,3.51.88,4.53,2.47l8.95,13.85c.94,1.46,2.53,2.37,4.26,2.46l16.47.83c2.77.14,4.98,2.35,5.12,5.12l.83,16.47c.09,1.73,1,3.32,2.46,4.26l13.85,8.95c2.33,1.5,3.14,4.52,1.87,6.99l-7.52,14.68c-.79,1.54-.79,3.37,0,4.92l7.52,14.68c1.26,2.46.45,5.49-1.87,6.99l-13.85,8.95c-1.46.94-2.37,2.53-2.46,4.26l-.83,16.47c-.14,2.77-2.35,4.98-5.12,5.12l-16.47.83c-1.73.09-3.32,1-4.26,2.46l-8.95,13.85c-1.02,1.59-2.75,2.47-4.53,2.47-.83,0-1.67-.19-2.46-.59l-14.68-7.52c-.77-.4-1.62-.59-2.46-.59s-1.69.2-2.46.59l-14.68,7.52c-.78.4-1.63.59-2.46.59-1.78,0-3.51-.88-4.53-2.47l-8.95-13.85c-.94-1.46-2.53-2.37-4.26-2.46l-16.47-.83c-2.77-.14-4.98-2.35-5.12-5.12l-.83-16.47c-.09-1.73-1-3.32-2.46-4.26l-13.85-8.95c-2.33-1.5-3.14-4.52-1.87-6.99l7.52-14.68c.79-1.54.79-3.37,0-4.92l-7.52-14.68c-1.26-2.46-.45-5.49,1.87-6.99l13.85-8.95c1.46-.94,2.37-2.53,2.46-4.26l.83-16.47c.14-2.77,2.35-4.98,5.12-5.12l16.47-.83c1.73-.09,3.32-1,4.26-2.46l8.95-13.85c1.02-1.59,2.75-2.47,4.53-2.47.83,0,1.67.19,2.46.59l14.68,7.52c.77.4,1.62.59,2.46.59s1.69-.2,2.46-.59l14.68-7.52c.78-.4,1.63-.59,2.46-.59m0-2.36h0c-1.22,0-2.44.3-3.53.85l-14.68,7.52c-.43.22-.9.33-1.38.33s-.96-.12-1.38-.33l-14.68-7.52c-1.09-.56-2.31-.85-3.53-.85-2.65,0-5.08,1.33-6.52,3.55l-8.95,13.85c-.53.82-1.42,1.33-2.39,1.38l-16.47.83c-3.99.2-7.16,3.36-7.36,7.36l-.83,16.47c-.05.97-.57,1.86-1.38,2.39l-13.85,8.95c-3.36,2.17-4.52,6.49-2.69,10.05l7.52,14.68c.44.86.44,1.9,0,2.76l-7.52,14.68c-1.82,3.56-.67,7.88,2.69,10.05l13.85,8.95c.82.53,1.33,1.42,1.38,2.39l.83,16.47c.2,3.99,3.36,7.16,7.36,7.36l16.47.83c.97.05,1.86.56,2.39,1.38l8.95,13.85c1.44,2.22,3.87,3.55,6.52,3.55,1.22,0,2.44-.3,3.53-.85l14.68-7.52c.43-.22.9-.33,1.38-.33s.96.12,1.38.33l14.68,7.52c1.09.56,2.31.85,3.53.85,2.65,0,5.08-1.33,6.52-3.55l8.95-13.85c.53-.82,1.42-1.33,2.39-1.38l16.47-.83c3.99-.2,7.16-3.36,7.36-7.36l.83-16.47c.05-.97.56-1.86,1.38-2.39l13.85-8.95c3.36-2.17,4.52-6.49,2.69-10.05l-7.52-14.68c-.44-.86-.44-1.9,0-2.76l7.52-14.68c1.82-3.56.67-7.88-2.69-10.05l-13.85-8.95c-.82-.53-1.33-1.42-1.38-2.39l-.83-16.47c-.2-3.99-3.36-7.16-7.36-7.36l-16.47-.83c-.97-.05-1.86-.56-2.39-1.38l-8.95-13.85c-1.44-2.22-3.87-3.55-6.52-3.55h0Z"/>
            </g>
            <path class="cls-25" d="m357.89,562.36l-14.2.71c-1.49.08-2.86.86-3.67,2.12l-7.72,11.94c-1.3,2.01-3.9,2.7-6.03,1.61l-12.66-6.48c-1.33-.68-2.91-.68-4.24,0l-12.66,6.48c-2.13,1.09-4.73.39-6.03-1.61l-7.72-11.94c-.81-1.26-2.18-2.05-3.67-2.12l-14.2-.71c-2.39-.12-4.29-2.03-4.41-4.41l-.71-14.2c-.08-1.49-.86-2.86-2.12-3.67l-11.94-7.72c-2.01-1.3-2.7-3.9-1.61-6.03l6.48-12.66c.68-1.33.68-2.91,0-4.24l-6.48-12.66c-1.09-2.13-.39-4.73,1.61-6.03l11.94-7.72c1.26-.81,2.05-2.18,2.12-3.67l.71-14.2c.12-2.39,2.03-4.29,4.41-4.41l14.2-.71c1.49-.08,2.86-.86,3.67-2.12l7.72-11.94c1.3-2.01,3.9-2.7,6.03-1.61l12.66,6.48c1.33.68,2.91.68,4.24,0l12.66-6.48c2.13-1.09,4.73-.39,6.03,1.61l7.72,11.94c.81,1.26,2.18,2.05,3.67,2.12l14.2.71c2.39.12,4.29,2.03,4.41,4.41l.71,14.2c.08,1.49.86,2.86,2.12,3.67l11.94,7.72c2.01,1.3,2.7,3.9,1.61,6.03l-6.48,12.66c-.68,1.33-.68,2.91,0,4.24l6.48,12.66c1.09,2.13.39,4.73-1.61,6.03l-11.94,7.72c-1.26.81-2.05,2.18-2.12,3.67l-.71,14.2c-.12,2.39-2.03,4.29-4.41,4.41Z"/>
            <path class="cls-34" d="m386.37,575.98c-48.77-15.18-101.31-15.18-150.08,0l-8.65-33.34c51.89-17.66,106.94-20.09,167.42-.02l-8.68,33.36Z"/>
            <g>
              <text class="cls-27" transform="translate(243.44 561.43) rotate(-14.55)"><tspan x="0" y="0">F</tspan></text>
              <text class="cls-27" transform="translate(251.65 559.33) rotate(-13.09)"><tspan x="0" y="0">I</tspan></text>
              <text class="cls-27" transform="translate(255.94 558.29) rotate(-11.52)"><tspan x="0" y="0">R</tspan></text>
              <text class="cls-27" transform="translate(265.24 556.4) rotate(-9.43)"><tspan x="0" y="0">S</tspan></text>
              <text class="cls-27" transform="translate(274.07 554.93) rotate(-7.46)"><tspan x="0" y="0">T</tspan></text>
              <text class="cls-27" transform="translate(282.36 553.88) rotate(-6.22)"><tspan x="0" y="0"> </tspan></text>
              <text class="cls-27" transform="translate(284.91 553.56) rotate(-4.99)"><tspan x="0" y="0">T</tspan></text>
              <text class="cls-27" transform="translate(293.5 552.8) rotate(-2.95)"><tspan x="0" y="0">R</tspan></text>
              <text class="cls-27" transform="translate(302.93 552.31) rotate(-.77)"><tspan x="0" y="0">U</tspan></text>
              <text class="cls-27" transform="translate(312.87 552.16) rotate(1.64)"><tspan x="0" y="0">M</tspan></text>
              <text class="cls-27" transform="translate(324.21 552.5) rotate(3.96)"><tspan x="0" y="0">P</tspan></text>
              <text class="cls-27" transform="translate(333.18 553.16) rotate(5.27)"><tspan x="0" y="0"> </tspan></text>
              <text class="cls-27" transform="translate(335.74 553.36) rotate(6.5)"><tspan x="0" y="0">T</tspan></text>
              <text class="cls-27" transform="translate(344.16 554.3) rotate(8.54)"><tspan x="0" y="0">O</tspan></text>
              <text class="cls-27" transform="translate(353.81 555.76) rotate(10.67)"><tspan x="0" y="0">K</tspan></text>
              <text class="cls-27" transform="translate(362.72 557.44) rotate(12.68)"><tspan x="0" y="0">E</tspan></text>
              <text class="cls-27" transform="translate(371.26 559.35) rotate(14.77)"><tspan x="0" y="0">N</tspan></text>
            </g>
          </g>
          <g>
            <path class="cls-42" d="m293.47,474.67h29.3c.42,0,.76-.15,1.05-.46l6.18-6.63c.07-.08.13-.17.16-.27.03-.1.04-.21.03-.31-.01-.11-.05-.2-.11-.29-.06-.09-.13-.16-.22-.22-.12-.08-.25-.11-.4-.11h-29.3c-.42,0-.76.15-1.05.46l-6.17,6.63c-.1.1-.16.23-.18.37-.02.14,0,.28.05.41.06.13.15.24.26.31s.25.12.39.12h0Zm30.35,4.76c-.28-.3-.63-.45-1.05-.46h-29.3c-.14,0-.27.04-.39.12-.12.08-.21.18-.26.31-.06.13-.07.27-.05.41.02.14.08.26.18.37l6.17,6.63c.28.3.63.45,1.05.46h29.3c.14,0,.27-.04.39-.12.12-.08.21-.18.26-.31.06-.13.07-.27.05-.41-.02-.14-.08-.26-.18-.37l-6.17-6.63Zm6.18,13.35l-6.18,6.63c-.28.3-.63.46-1.05.46h-29.3c-.14,0-.27-.04-.39-.12-.12-.08-.21-.18-.26-.31-.06-.13-.07-.27-.05-.41.02-.14.08-.26.18-.37l6.17-6.63c.28-.3.63-.46,1.05-.46h29.3c.14,0,.28.03.4.11.12.08.21.18.27.31.06.13.08.27.05.41-.02.14-.09.27-.19.37Z"/>
            <path class="cls-47" d="m302.46,508.27h-2.36v9.32c0,.31.06.6.18.89.12.28.29.53.51.75.22.22.47.38.76.5s.58.17.89.17h7.07v-2.33h-7.06v-9.3Zm31.89,9.3h-.94l-3.37-8.33c-.06-.14-.14-.28-.23-.4-.1-.12-.21-.22-.34-.31-.13-.09-.27-.15-.41-.2-.15-.05-.3-.07-.45-.07h-2.09c-.15,0-.3.02-.45.06s-.28.11-.41.19c-.13.08-.24.19-.34.3-.1.12-.18.25-.24.39-.08.19-.12.39-.12.59v10.09h2.36v-9.3h.94l3.37,8.33c.06.14.14.28.24.4.1.12.21.22.34.31.13.09.27.15.42.2.15.04.3.07.45.07h2.09c.21,0,.4-.04.59-.11.19-.08.36-.19.5-.33.15-.14.26-.31.34-.5s.12-.39.12-.59v-10.08h-2.36v9.3Zm13.67-3.82h-6.88v-3.16h6.88v3.16Zm.02-5.48h-6.91c-.15,0-.3.01-.45.04-.15.03-.3.07-.44.13-.14.06-.28.13-.4.21-.13.08-.24.18-.35.29-.11.11-.21.22-.29.35-.09.13-.16.26-.22.4s-.1.29-.13.43-.05.3-.05.45v9.32h2.36v-3.82h6.87v3.82h2.36v-9.32c0-.31-.06-.6-.18-.89-.12-.28-.29-.53-.51-.75-.22-.22-.47-.38-.76-.5-.28-.12-.58-.17-.89-.17Zm-27.54,5.48h-6.88v-3.16h6.88v3.16Zm.02-5.48h-6.91c-.15,0-.3.01-.45.04-.15.03-.3.07-.44.13s-.28.13-.4.21c-.13.08-.24.18-.35.29s-.21.22-.29.35c-.09.13-.16.26-.22.4-.06.14-.1.29-.13.43s-.05.3-.05.45v9.32h2.36v-3.82h6.88v3.82h2.36v-9.32c0-.15-.02-.3-.05-.45-.03-.15-.08-.3-.14-.44-.06-.14-.13-.27-.22-.4-.09-.13-.18-.24-.29-.35-.11-.11-.23-.2-.36-.29-.13-.08-.26-.15-.41-.21-.14-.06-.29-.1-.44-.13-.15-.03-.3-.04-.46-.04Zm-24.85,9.3h-7.05v-6.98h7.05v6.98h0Zm.02-9.3h-7.09c-.23,0-.46.03-.68.09-.22.07-.43.16-.62.29-.19.13-.36.28-.51.45-.15.18-.27.37-.35.58-.12.28-.18.58-.18.89v7.01c0,.31.06.61.18.89.09.21.21.41.35.58.15.18.32.33.51.45s.4.22.62.29c.22.07.45.1.68.09h7.09c.15,0,.3-.01.45-.04.15-.03.3-.07.44-.13s.28-.13.4-.21.24-.18.35-.29c.11-.11.21-.22.29-.35.09-.13.16-.26.22-.4.06-.14.1-.29.13-.43.03-.15.05-.3.05-.45v-7.01c0-.31-.06-.6-.18-.89-.12-.28-.29-.53-.51-.75-.22-.22-.47-.38-.76-.5-.29-.12-.58-.17-.89-.17Zm-13.68,4.65h-7.06v-2.33h8.9v-2.33h-8.92c-.15,0-.3.01-.45.04s-.3.07-.44.13c-.14.06-.28.13-.4.21-.13.08-.24.18-.35.29-.11.11-.21.22-.29.35-.09.13-.16.26-.22.4-.06.14-.1.29-.13.43-.03.15-.05.3-.05.45v2.36c0,.15.02.3.05.45.03.15.08.29.13.44.06.14.13.27.22.4.09.13.18.24.29.35.11.11.23.2.35.29.13.08.26.16.4.21.14.06.29.1.44.13.15.03.3.04.45.04h7.07v2.33h-9.24v2.33h9.25c.23,0,.45-.03.67-.1.22-.07.43-.16.62-.29.19-.13.36-.28.51-.45.15-.18.26-.37.35-.58.12-.28.18-.58.18-.89v-2.36c0-.15-.02-.3-.05-.45-.03-.15-.08-.29-.13-.44s-.13-.27-.22-.4c-.09-.13-.18-.24-.29-.35-.11-.11-.23-.2-.35-.29-.13-.08-.26-.15-.4-.21-.14-.06-.29-.1-.44-.13s-.3-.04-.45-.04Z"/>
          </g>
        </g>
      </g>
    </g>
  </g>
</svg>