<?xml version="1.0" encoding="utf-8"?>
<!-- Generator: Adobe Illustrator 27.7.0, SVG Export Plug-In . SVG Version: 6.00 Build 0)  -->
<svg version="1.1" id="Capa_1" xmlns="http://www.w3.org/2000/svg" xmlns:xlink="http://www.w3.org/1999/xlink" x="0px" y="0px"
	 viewBox="0 0 272.1 303.9" style="enable-background:new 0 0 272.1 303.9;" xml:space="preserve">
<style type="text/css">
	.st0{fill:#FFFFFF;}
</style>
<g id="Capa_2_00000178178079070441044590000000895862982544496039_">
	<g id="Fondo">
		<path class="st0" d="M245.3,123.9l2.6,18.6c0.2,1.3,1.2,2.3,2.5,2.5l19.3,2.9c1.6,0.2,2.7,1.7,2.5,3.3c-0.1,0.8-0.5,1.5-1.2,1.9
			l-22.5,16.3c-0.6,0.4-1,1.1-1.2,1.9l-4.4,24.4c-0.3,1.6-1.8,2.7-3.4,2.4c-0.4-0.1-0.8-0.2-1.1-0.4l-16.9-10.9
			c-0.8-0.5-1.9-0.6-2.8-0.2l-22.7,10c-1.5,0.7-3.2,0-3.9-1.5c-0.4-0.8-0.3-1.8,0.1-2.5l11-20.9c0.5-1,0.4-2.1-0.2-3l-10.7-15.8
			c-0.9-1.3-0.6-3.2,0.8-4.1c0.4-0.2,0.8-0.4,1.2-0.5l25.8-3.6c0.7-0.1,1.4-0.5,1.8-1l18.1-21.4c1-1.3,2.9-1.4,4.1-0.4
			C244.8,122.5,245.2,123.1,245.3,123.9z"/>
		<path class="st0" d="M112.8,6.9l4.8,34.2c0.5,3.5,3.2,6.3,6.7,6.8l35.4,5.4c4.4,0.6,7.4,4.7,6.8,9c-0.3,2.2-1.5,4.2-3.3,5.4
			l-43.7,31.7c-1.7,1.2-2.8,3-3.2,5.1l-8.8,48.6c-0.8,4.4-4.9,7.3-9.3,6.5c-1.1-0.2-2.1-0.6-3-1.2l-32.8-21.2
			c-2.3-1.5-5.1-1.7-7.6-0.6l-42.7,18.9c-4,1.8-8.8,0.1-10.6-3.9c-1.1-2.3-1-4.9,0.2-7.2l20.4-38.9c1.4-2.6,1.2-5.8-0.5-8.2L1.4,67
			c-2.5-3.6-1.6-8.6,2.1-11.1c1.1-0.7,2.3-1.2,3.5-1.3l51.3-7.1c2-0.3,3.7-1.3,5-2.8L98.7,2.8c2.8-3.4,7.9-3.9,11.3-1.1
			C111.5,3.1,112.6,4.9,112.8,6.9z"/>
		<path class="st0" d="M134.8,217.6l1.2,8.6c0.2,1.3,1.2,2.3,2.5,2.5l8.9,1.4c1.6,0.2,2.7,1.7,2.5,3.3c-0.1,0.8-0.5,1.5-1.2,1.9
			l-11.8,8.6c-0.6,0.4-1,1.1-1.2,1.9l-2.4,13.5c-0.3,1.6-1.8,2.6-3.4,2.4c-0.4-0.1-0.8-0.2-1.1-0.4l-8.9-5.7
			c-0.8-0.5-1.9-0.6-2.8-0.2l-11.1,4.9c-1.5,0.6-3.2,0-3.8-1.5c-0.3-0.8-0.3-1.7,0.1-2.5l5.2-10c0.5-1,0.4-2.1-0.2-3l-5.4-8.1
			c-0.9-1.3-0.6-3.2,0.8-4.1c0.4-0.2,0.8-0.4,1.2-0.5l14.3-2c0.7-0.1,1.4-0.5,1.8-1l9.7-11.4c1-1.2,2.9-1.4,4.1-0.4
			C134.3,216.2,134.7,216.9,134.8,217.6z"/>
		<path class="st0" d="M207.7,281.4l0.2,1.5c0.2,1.3,1.2,2.3,2.5,2.5l1.4,0.2c1.6,0.2,2.7,1.7,2.5,3.3c-0.1,0.8-0.5,1.5-1.2,2
			l-4.2,3c-0.6,0.4-1,1.1-1.2,1.9l-1,5.7c-0.3,1.6-1.8,2.6-3.4,2.4c-0.4-0.1-0.7-0.2-1.1-0.4l-3.1-2c-0.8-0.5-1.9-0.6-2.8-0.2
			l-2.8,1.2c-1.5,0.6-3.2-0.1-3.9-1.6c-0.3-0.8-0.3-1.7,0.1-2.4l1.1-2.2c0.5-1,0.4-2.1-0.2-3l-1.8-2.6c-0.9-1.3-0.6-3.2,0.8-4.1
			c0.4-0.2,0.8-0.4,1.2-0.5l6-0.8c0.7-0.1,1.4-0.5,1.8-1l3.6-4.3c1-1.3,2.8-1.5,4.1-0.5C207.2,279.9,207.6,280.6,207.7,281.4z"/>
	</g>
</g>
</svg>
